<?xml version="1.0" encoding="UTF-8"?>
<!DOCTYPE svg PUBLIC "-//W3C//DTD SVG 1.1//EN" "http://www.w3.org/Graphics/SVG/1.1/DTD/svg11.dtd">
<!-- Creator: CorelDRAW -->
<svg xmlns="http://www.w3.org/2000/svg" xml:space="preserve" width="10mm" height="10mm" version="1.1" style="shape-rendering:geometricPrecision; text-rendering:geometricPrecision; image-rendering:optimizeQuality; fill-rule:evenodd; clip-rule:evenodd"
viewBox="0 0 1000 1000"
 xmlns:xlink="http://www.w3.org/1999/xlink"
 xmlns:xodm="http://www.corel.com/coreldraw/odm/2003">
 <defs>
  <style type="text/css">
   <![CDATA[
    .fil0 {fill:#F58634}
   ]]>
  </style>
 </defs>
 <g id="Layer_x0020_1">
  <metadata id="CorelCorpID_0Corel-Layer"/>
  <path class="fil0" d="M492 8c276.14,0 500,223.86 500,500 0,276.14 -223.86,500 -500,500 -276.14,0 -500,-223.86 -500,-500 0,-276.14 223.86,-500 500,-500zm-184.14 733.09c0,2.07 -0.2,4.04 -0.59,5.62 -0.4,1.68 -0.99,2.96 -1.68,3.95 -0.79,0.98 -1.78,1.67 -2.76,2.26 -1.09,0.59 -2.17,0.89 -3.35,0.89 -2.67,0.39 -4.93,0.59 -6.81,0.59 -1.87,0 -4.24,0 -7.1,0 -11.73,0 -21.29,-1.97 -28.59,-5.82 -7.39,-3.84 -13.11,-9.56 -17.25,-17.15 -4.14,-7.59 -6.91,-17.16 -8.38,-28.69 -1.48,-11.54 -2.17,-27.02 -2.17,-46.54l0 -64.58c0,-13.9 -0.79,-25.14 -2.47,-33.72 -1.67,-8.48 -4.14,-15.97 -7.69,-22.28 -3.45,-6.41 -7.89,-11.54 -13.21,-15.39 -5.42,-3.84 -11.93,-6.01 -19.42,-6.6 -1.68,-0.2 -3.16,-0.59 -4.15,-1.18 -1.08,-0.6 -1.87,-1.29 -2.46,-2.27 -0.59,-0.99 -0.99,-2.17 -1.18,-3.65 -0.2,-1.38 -0.3,-2.96 -0.3,-4.73 0,-1.97 0.1,-3.65 0.3,-5.03 0.19,-1.48 0.59,-2.66 1.18,-3.65 0.59,-0.99 1.38,-1.68 2.46,-2.17 0.99,-0.49 2.47,-0.79 4.15,-0.98 14.69,-1.58 25.43,-8.78 32.34,-21.6 7,-12.81 10.45,-31.65 10.45,-56.59l0 -51.76c0,-19.33 0.79,-34.71 2.26,-46.35 1.58,-11.53 4.44,-21.19 8.78,-28.88 4.24,-7.69 9.96,-13.51 17.35,-17.36 7.3,-3.84 16.67,-5.81 28,-5.81 2.86,0 5.13,0 6.71,0 1.48,0 3.74,0.19 6.6,0.59 1.38,0 2.57,0.29 3.75,0.88 1.18,0.6 2.17,1.29 2.96,2.27 0.69,0.99 1.28,2.27 1.68,3.95 0.39,1.57 0.59,3.45 0.59,5.62 0,2.26 -0.2,4.33 -0.59,5.91 -0.4,1.68 -0.99,3.06 -1.78,4.24 -0.69,1.09 -1.68,1.97 -2.86,2.47 -1.18,0.49 -2.46,0.69 -3.75,0.69l-12.52 0c-4.63,0 -8.58,0.88 -11.93,2.56 -3.25,1.77 -6.01,5.13 -8.08,10.16 -2.17,5.02 -3.75,12.02 -4.83,21 -1.09,8.97 -1.58,22.58 -1.58,40.91l0 45.75c0,13.91 -0.69,25.74 -2.07,35.4 -1.28,9.76 -3.75,18.63 -7.2,26.52 -3.45,7.89 -8.18,14.69 -14.1,20.21 -6.01,5.62 -13.7,9.27 -23.17,11.05 9.47,1.77 17.16,5.42 23.17,10.94 5.92,5.62 10.65,12.33 14.1,20.21 3.45,7.89 5.92,16.67 7.2,26.43 1.38,9.76 2.07,21.49 2.07,35.39l0 58.57c0,18.24 0.49,31.85 1.58,40.82 1.08,8.97 2.66,15.87 4.83,20.9 2.07,5.03 4.83,8.38 8.08,10.16 3.35,1.67 7.3,2.56 11.93,2.56l13.12 0c1.08,0 2.26,0.2 3.25,0.69 1.08,0.49 2.07,1.38 2.76,2.47 0.79,1.18 1.38,2.56 1.78,4.24 0.39,1.57 0.59,3.54 0.59,5.91zm368.28 0c0,2.07 0.2,4.04 0.59,5.62 0.4,1.68 0.99,2.96 1.68,3.95 0.79,0.98 1.78,1.67 2.76,2.26 1.09,0.59 2.17,0.89 3.35,0.89 2.67,0.39 4.93,0.59 6.81,0.59 1.87,0 4.24,0 7.1,0 11.73,0 21.29,-1.97 28.59,-5.82 7.39,-3.84 13.11,-9.56 17.25,-17.15 4.14,-7.59 6.91,-17.16 8.38,-28.69 1.48,-11.54 2.17,-27.02 2.17,-46.54l0 -64.58c0,-13.9 0.79,-25.14 2.47,-33.72 1.67,-8.48 4.14,-15.97 7.69,-22.28 3.45,-6.41 7.89,-11.54 13.21,-15.39 5.42,-3.84 11.93,-6.01 19.42,-6.6 1.68,-0.2 3.16,-0.59 4.15,-1.18 1.08,-0.6 1.87,-1.29 2.46,-2.27 0.59,-0.99 0.99,-2.17 1.18,-3.65 0.2,-1.38 0.3,-2.96 0.3,-4.73 0,-1.97 -0.1,-3.65 -0.3,-5.03 -0.19,-1.48 -0.59,-2.66 -1.18,-3.65 -0.59,-0.99 -1.38,-1.68 -2.46,-2.17 -0.99,-0.49 -2.47,-0.79 -4.15,-0.98 -14.69,-1.58 -25.43,-8.78 -32.34,-21.6 -7,-12.81 -10.45,-31.65 -10.45,-56.59l0 -51.76c0,-19.33 -0.79,-34.71 -2.26,-46.35 -1.58,-11.53 -4.44,-21.19 -8.78,-28.88 -4.24,-7.69 -9.96,-13.51 -17.35,-17.36 -7.3,-3.84 -16.67,-5.81 -28,-5.81 -2.86,0 -5.13,0 -6.71,0 -1.48,0 -3.74,0.19 -6.6,0.59 -1.38,0 -2.57,0.29 -3.75,0.88 -1.18,0.6 -2.17,1.29 -2.96,2.27 -0.69,0.99 -1.28,2.27 -1.68,3.95 -0.39,1.57 -0.59,3.45 -0.59,5.62 0,2.26 0.2,4.33 0.59,5.91 0.4,1.68 0.99,3.06 1.78,4.24 0.69,1.09 1.68,1.97 2.86,2.47 1.18,0.49 2.46,0.69 3.75,0.69l12.52 0c4.63,0 8.58,0.88 11.93,2.56 3.25,1.77 6.01,5.13 8.08,10.16 2.17,5.02 3.75,12.02 4.83,21 1.09,8.97 1.58,22.58 1.58,40.91l0 45.75c0,13.91 0.69,25.74 2.07,35.4 1.28,9.76 3.75,18.63 7.2,26.52 3.45,7.89 8.18,14.69 14.1,20.21 6.01,5.62 13.7,9.27 23.17,11.05 -9.47,1.77 -17.16,5.42 -23.17,10.94 -5.92,5.62 -10.65,12.33 -14.1,20.21 -3.45,7.89 -5.92,16.67 -7.2,26.43 -1.38,9.76 -2.07,21.49 -2.07,35.39l0 58.57c0,18.24 -0.49,31.85 -1.58,40.82 -1.08,8.97 -2.66,15.87 -4.83,20.9 -2.07,5.03 -4.83,8.38 -8.08,10.16 -3.35,1.67 -7.3,2.56 -11.93,2.56l-13.12 0c-1.08,0 -2.26,0.2 -3.25,0.69 -1.08,0.49 -2.07,1.38 -2.76,2.47 -0.79,1.18 -1.38,2.56 -1.78,4.24 -0.39,1.57 -0.59,3.54 -0.59,5.91zm-73.22 -147.5c0,16.57 -2.96,31.45 -8.97,44.57 -5.92,13.11 -14.3,24.15 -25.14,33.32 -10.75,9.17 -23.57,16.17 -38.36,21.01 -14.89,4.83 -31.06,7.19 -48.61,7.19 -11.93,0 -23.17,-1.08 -33.72,-3.35 -10.64,-2.17 -20.01,-4.83 -28.29,-7.89 -8.29,-3.05 -15.29,-6.21 -21,-9.36 -5.62,-3.16 -9.57,-5.82 -11.64,-7.99 -2.17,-2.27 -3.75,-4.83 -4.63,-7.89 -0.99,-2.96 -1.48,-6.7 -1.48,-11.14 0,-3.25 0.2,-6.01 0.59,-8.18 0.39,-2.07 0.89,-3.85 1.58,-5.23 0.69,-1.28 1.58,-2.27 2.56,-2.76 1.09,-0.49 2.17,-0.69 3.35,-0.69 2.67,0 6.51,1.68 11.34,5.03 4.93,3.35 11.34,7 19.13,10.94 7.69,3.95 17.06,7.6 27.9,10.95 10.85,3.35 23.57,5.03 37.96,5.03 11.74,0 22.48,-1.58 32.24,-4.74 9.86,-3.15 18.34,-7.69 25.44,-13.7 7.1,-5.92 12.62,-13.31 16.57,-21.99 3.94,-8.77 5.91,-18.63 5.91,-29.78 0,-11.53 -2.46,-21.49 -7.49,-29.77 -5.03,-8.18 -11.64,-15.48 -19.72,-21.69 -8.18,-6.31 -17.45,-11.93 -27.9,-17.06 -10.36,-5.13 -21.01,-10.16 -31.85,-15.28 -10.85,-5.13 -21.49,-10.65 -31.85,-16.57 -10.45,-6.01 -19.72,-12.91 -27.9,-20.9 -8.09,-7.99 -14.69,-17.35 -19.72,-28.2 -5.03,-10.74 -7.49,-23.56 -7.49,-38.35 0,-14.5 2.56,-27.41 7.79,-38.85 5.22,-11.53 12.52,-21.2 21.98,-29.18 9.37,-7.99 20.71,-14.2 33.82,-18.44 13.21,-4.24 27.71,-6.31 43.48,-6.31 7.89,0 15.88,0.79 23.96,2.37 8.09,1.57 15.78,3.54 22.97,6.01 7.2,2.37 13.61,5.13 19.33,8.18 5.62,2.96 9.37,5.43 11.24,7.3 1.87,1.87 2.96,3.15 3.45,4.04 0.49,0.89 0.89,1.97 1.28,3.35 0.4,1.29 0.69,2.86 0.89,4.74 0.2,1.77 0.3,4.04 0.3,6.7 0,2.56 -0.1,4.83 -0.4,6.8 -0.29,2.07 -0.79,3.75 -1.28,5.23 -0.59,1.38 -1.38,2.56 -2.17,3.25 -0.89,0.79 -1.87,1.19 -3.06,1.19 -2.17,0 -5.32,-1.38 -9.66,-4.24 -4.34,-2.76 -9.76,-5.92 -16.27,-9.37 -6.5,-3.45 -14.29,-6.61 -23.36,-9.37 -8.98,-2.86 -19.23,-4.24 -30.77,-4.24 -11.34,0 -21.29,1.58 -29.67,4.64 -8.48,3.05 -15.48,7.2 -21.1,12.52 -5.53,5.23 -9.67,11.44 -12.53,18.54 -2.76,7.1 -4.14,14.59 -4.14,22.38 0,11.53 2.47,21.49 7.5,29.77 5.03,8.29 11.63,15.58 19.91,21.89 8.29,6.31 17.65,12.03 28.1,17.16 10.55,5.13 21.2,10.15 32.05,15.28 10.84,5.13 21.49,10.55 32.04,16.47 10.45,5.81 19.82,12.81 28.1,20.7 8.28,7.99 14.89,17.35 19.92,28 5.03,10.75 7.49,23.37 7.49,37.96z"/>
 </g>
</svg>
